<svg width="23" height="20" viewBox="0 0 23 20" fill="none" xmlns="http://www.w3.org/2000/svg" color="red">
<path d="M21.3636 14.1788H6.59973L7.34102 12.6689L19.6579 12.6466C20.0744 12.6466 20.4314 12.3491 20.5058 11.9375L22.2115 2.38998C22.2561 2.13958 22.1892 1.88174 22.0255 1.68588C21.9447 1.58949 21.8438 1.51184 21.7299 1.45833C21.616 1.40482 21.4919 1.37671 21.3661 1.37598L5.69729 1.32391L5.56341 0.694186C5.47911 0.29255 5.11714 0 4.70559 0H0.87517C0.643061 0 0.420458 0.0922051 0.256332 0.256331C0.0922052 0.420458 0 0.643061 0 0.875171C0 1.10728 0.0922052 1.32988 0.256332 1.49401C0.420458 1.65814 0.643061 1.75034 0.87517 1.75034H3.99653L4.58163 4.53204L6.02207 11.5061L4.1676 14.5333C4.07129 14.6633 4.01329 14.8176 4.00014 14.9788C3.987 15.1401 4.01924 15.3018 4.09322 15.4456C4.24197 15.7407 4.54196 15.9266 4.87418 15.9266H6.43114C6.09922 16.3675 5.91993 16.9045 5.92042 17.4563C5.92042 18.8596 7.06087 20 8.46411 20C9.86736 20 11.0078 18.8596 11.0078 17.4563C11.0078 16.9034 10.8243 16.3654 10.4971 15.9266H14.4911C14.1592 16.3675 13.9799 16.9045 13.9804 17.4563C13.9804 18.8596 15.1209 20 16.5241 20C17.9274 20 19.0678 18.8596 19.0678 17.4563C19.0678 16.9034 18.8843 16.3654 18.5571 15.9266H21.3661C21.847 15.9266 22.2412 15.5349 22.2412 15.0514C22.2398 14.8196 22.1467 14.5977 21.9823 14.4342C21.8179 14.2707 21.5955 14.1789 21.3636 14.1788ZM6.06173 3.04946L20.3372 3.09657L18.9389 10.926L7.7253 10.9458L6.06173 3.04946ZM8.46411 18.2397C8.03273 18.2397 7.68067 17.8877 7.68067 17.4563C7.68067 17.0249 8.03273 16.6729 8.46411 16.6729C8.8955 16.6729 9.24755 17.0249 9.24755 17.4563C9.24755 17.6641 9.16501 17.8634 9.01809 18.0103C8.87117 18.1572 8.67189 18.2397 8.46411 18.2397ZM16.5241 18.2397C16.0927 18.2397 15.7407 17.8877 15.7407 17.4563C15.7407 17.0249 16.0927 16.6729 16.5241 16.6729C16.9555 16.6729 17.3076 17.0249 17.3076 17.4563C17.3076 17.6641 17.225 17.8634 17.0781 18.0103C16.9312 18.1572 16.7319 18.2397 16.5241 18.2397Z" fill="white"/>
</svg>
