<svg width="18" height="16" viewBox="0 0 18 16" fill="none" xmlns="http://www.w3.org/2000/svg">
<path d="M16.6897 11.1341H5.61682L6.17279 10.0017L15.4104 9.98494C15.7228 9.98494 15.9906 9.76181 16.0463 9.45314L17.3256 2.29249C17.3591 2.10469 17.3089 1.91131 17.1862 1.76441C17.1255 1.69212 17.0499 1.63388 16.9645 1.59375C16.8791 1.55361 16.7859 1.53254 16.6916 1.53198L4.93999 1.49293L4.83958 1.02064C4.77636 0.719412 4.50488 0.5 4.19622 0.5H1.3234C1.14932 0.5 0.982366 0.569154 0.859271 0.692249C0.736177 0.815343 0.667023 0.982296 0.667023 1.15638C0.667023 1.33046 0.736177 1.49741 0.859271 1.62051C0.982366 1.7436 1.14932 1.81276 1.3234 1.81276H3.66442L4.10324 3.89903L5.18357 9.1296L3.79272 11.4C3.72049 11.4974 3.67699 11.6132 3.66713 11.7341C3.65727 11.8551 3.68145 11.9763 3.73694 12.0842C3.8485 12.3055 4.07349 12.445 4.32266 12.445H5.49038C5.24143 12.7756 5.10697 13.1783 5.10734 13.5922C5.10734 14.6447 5.96267 15.5 7.01511 15.5C8.06754 15.5 8.92288 14.6447 8.92288 13.5922C8.92288 13.1776 8.78528 12.7741 8.53984 12.445H11.5354C11.2864 12.7756 11.152 13.1783 11.1523 13.5922C11.1523 14.6447 12.0077 15.5 13.0601 15.5C14.1125 15.5 14.9679 14.6447 14.9679 13.5922C14.9679 13.1776 14.8303 12.7741 14.5848 12.445H16.6916C17.0523 12.445 17.3479 12.1512 17.3479 11.7886C17.3469 11.6147 17.2771 11.4483 17.1537 11.3256C17.0304 11.203 16.8636 11.1342 16.6897 11.1341V11.1341ZM5.21332 2.7871L15.9199 2.82242L14.8712 8.6945L6.461 8.70937L5.21332 2.7871ZM7.01511 14.1798C6.69157 14.1798 6.42753 13.9158 6.42753 13.5922C6.42753 13.2687 6.69157 13.0046 7.01511 13.0046C7.33865 13.0046 7.60269 13.2687 7.60269 13.5922C7.60269 13.7481 7.54078 13.8975 7.43059 14.0077C7.3204 14.1179 7.17094 14.1798 7.01511 14.1798V14.1798ZM13.0601 14.1798C12.7366 14.1798 12.4725 13.9158 12.4725 13.5922C12.4725 13.2687 12.7366 13.0046 13.0601 13.0046C13.3836 13.0046 13.6477 13.2687 13.6477 13.5922C13.6477 13.7481 13.5858 13.8975 13.4756 14.0077C13.3654 14.1179 13.2159 14.1798 13.0601 14.1798V14.1798Z" fill="#18191F"/>
</svg>
