<svg width="27" height="20" viewBox="0 0 27 20" fill="none" xmlns="http://www.w3.org/2000/svg">
<path fill-rule="evenodd" clip-rule="evenodd" d="M3.80723 9.61947C3.80879 9.58781 3.80958 9.55595 3.80958 9.5239C3.80958 8.47193 2.95679 7.61914 1.90482 7.61914C0.852852 7.61914 6.10352e-05 8.47193 6.10352e-05 9.5239C6.10352e-05 9.55595 0.000852388 9.58781 0.00241662 9.61947H0.00016276V18.0954V18.0957V19.0478C0.00016276 19.5737 0.426558 20.0001 0.952544 20.0001C1.47853 20.0001 1.90492 19.5737 1.90492 19.0478V18.0957H3.80969V9.61947H3.80723ZM26.6668 9.5239C26.6668 9.55595 26.666 9.58781 26.6644 9.61947H26.6668V13.3333H26.6669V18.0952H26.6668V18.0954H26.6669V19.0478C26.6669 19.5737 26.2405 20.0001 25.7145 20.0001C25.1885 20.0001 24.7621 19.5737 24.7621 19.0478V18.0957H22.8573V18.0952H3.80973V13.3333H22.8573V9.61947H22.8596C22.8581 9.58781 22.8573 9.55595 22.8573 9.5239C22.8573 8.47193 23.7101 7.61914 24.762 7.61914C25.814 7.61914 26.6668 8.47193 26.6668 9.5239Z" fill="#18191F"/>
<path fill-rule="evenodd" clip-rule="evenodd" d="M1.90647 2.95247H1.90485V5.49588C2.20271 5.39061 2.52324 5.33333 2.85714 5.33333C4.4032 5.33333 5.66244 6.56132 5.71272 8.09515H20.954C21.0042 6.56132 22.2635 5.33333 23.8095 5.33333C24.1435 5.33333 24.4641 5.39063 24.762 5.49594V2.95247H24.7604C24.7614 2.92082 24.762 2.88904 24.762 2.85714C24.762 1.27919 23.4828 0 21.9048 0H4.76205H4.66673V0.00156015C3.1329 0.0518403 1.90491 1.31109 1.90491 2.85714C1.90491 2.88904 1.90543 2.92082 1.90647 2.95247ZM20.9525 8.09538V8.16421L20.9524 8.19048L20.9525 8.21675V11.4287H5.71442V8.09538H20.9525Z" fill="#18191F"/>
</svg>
