<svg width="11" height="12" viewBox="0 0 11 12" fill="none" xmlns="http://www.w3.org/2000/svg">
<path d="M10.0625 2.5H8.3125V1.40625C8.3125 0.923633 7.92012 0.53125 7.4375 0.53125H3.0625C2.57988 0.53125 2.1875 0.923633 2.1875 1.40625V2.5H0.4375C0.195508 2.5 0 2.69551 0 2.9375V3.375C0 3.43516 0.0492187 3.48438 0.109375 3.48438H0.935156L1.27285 10.6348C1.29473 11.101 1.68027 11.4688 2.14648 11.4688H8.35352C8.82109 11.4688 9.20527 11.1023 9.22715 10.6348L9.56484 3.48438H10.3906C10.4508 3.48438 10.5 3.43516 10.5 3.375V2.9375C10.5 2.69551 10.3045 2.5 10.0625 2.5ZM7.32812 2.5H3.17188V1.51562H7.32812V2.5Z" fill="#E28F1D"/>
</svg>
