<svg width="16" height="16" viewBox="0 0 16 16" fill="none" xmlns="http://www.w3.org/2000/svg">
<path fill-rule="evenodd" clip-rule="evenodd" d="M11.4107 10.1738L15.4456 14.2088C15.5875 14.3507 15.6671 14.5431 15.667 14.7438C15.667 14.9444 15.5872 15.1368 15.4453 15.2786C15.3033 15.4204 15.1109 15.5001 14.9103 15.5C14.7096 15.4999 14.5172 15.4202 14.3754 15.2782L10.3405 11.2433C9.13431 12.1776 7.61752 12.6172 6.09869 12.4728C4.57986 12.3284 3.17308 11.6108 2.16454 10.4661C1.156 9.32126 0.621459 7.83526 0.669654 6.31034C0.717849 4.78543 1.34516 3.33614 2.42398 2.25732C3.5028 1.17851 4.95208 0.551192 6.477 0.502997C8.00192 0.454802 9.48792 0.989347 10.6327 1.99789C11.7775 3.00643 12.4951 4.41321 12.6395 5.93204C12.7839 7.45087 12.3442 8.96766 11.41 10.1738H11.4107ZM6.66708 10.9996C7.86053 10.9996 9.0051 10.5255 9.849 9.68159C10.6929 8.83769 11.167 7.69313 11.167 6.49968C11.167 5.30623 10.6929 4.16166 9.849 3.31777C9.0051 2.47387 7.86053 1.99978 6.66708 1.99978C5.47364 1.99978 4.32907 2.47387 3.48517 3.31777C2.64128 4.16166 2.16718 5.30623 2.16718 6.49968C2.16718 7.69313 2.64128 8.83769 3.48517 9.68159C4.32907 10.5255 5.47364 10.9996 6.66708 10.9996V10.9996Z" fill="#18191F"/>
</svg>
