<svg width="40" height="40" viewBox="0 0 40 40" fill="none" xmlns="http://www.w3.org/2000/svg">
<path fill-rule="evenodd" clip-rule="evenodd" d="M20 40C8.95431 40 0 31.0457 0 20C0 8.9543 8.95431 0 20 0C31.0457 0 40 8.9543 40 20C40 31.0457 31.0457 40 20 40ZM23.8912 26.6092L17.3836 20.2344L23.8912 13.8595C24.3714 13.3892 24.3714 12.6266 23.8912 12.1562C23.4111 11.6859 22.6326 11.6859 22.1524 12.1562L14.7754 19.3827C14.2952 19.8531 14.2952 20.6157 14.7754 21.086L22.1524 28.3125C22.6326 28.7829 23.4111 28.7829 23.8912 28.3125C24.3714 27.8422 24.3714 27.0796 23.8912 26.6092Z" fill="#E28F1D"/>
</svg>
